<?xml version="1.0" encoding="UTF-8" standalone="no"?>
<svg
   xmlns:dc="http://purl.org/dc/elements/1.1/"
   xmlns:cc="http://creativecommons.org/ns#"
   xmlns:rdf="http://www.w3.org/1999/02/22-rdf-syntax-ns#"
   xmlns:svg="http://www.w3.org/2000/svg"
   xmlns="http://www.w3.org/2000/svg"
   viewBox="0 0 333.92401 63.150398"
   height="63.150398"
   width="333.92401"
   xml:space="preserve"
   id="svg2"
   version="1.1"><metadata
     id="metadata8"><rdf:RDF><cc:Work
         rdf:about=""><dc:format>image/svg+xml</dc:format><dc:type
           rdf:resource="http://purl.org/dc/dcmitype/StillImage" /></cc:Work></rdf:RDF></metadata><defs
     id="defs6"><clipPath
       id="clipPath18"
       clipPathUnits="userSpaceOnUse"><path
         id="path16"
         d="M 0,47.363 H 250.443 V 0 H 0 Z" /></clipPath></defs><g
     transform="matrix(1.3333333,0,0,-1.3333333,0,63.1504)"
     id="g10"><g
       id="g12"><g
         clip-path="url(#clipPath18)"
         id="g14"><g
           transform="translate(12.3467,40.4868)"
           id="g20"><path
             id="path22"
             style="fill:#000000;fill-opacity:1;fill-rule:nonzero;stroke:none"
             d="M 0,0 -0.95,3.039 H -0.988 L -1.899,0 -5.774,-10.143 H 3.875 Z M 0.456,5.888 9.003,-17.02 c 0.077,-0.265 0.267,-0.417 0.495,-0.455 0.569,-0.152 0.949,-0.608 0.949,-1.216 0,-0.76 -0.684,-1.253 -1.405,-1.253 -1.14,0 -1.938,0.949 -2.318,1.899 l -2.013,5.47 H -6.61 l -2.014,-5.47 c -0.379,-0.95 -1.177,-1.899 -2.317,-1.899 -0.722,0 -1.406,0.493 -1.406,1.253 0,0.608 0.38,1.064 0.95,1.216 0.228,0.038 0.418,0.19 0.494,0.455 l 8.548,22.908 c 0.228,0.646 0.797,0.95 1.405,0.95 0.608,0 1.178,-0.304 1.406,-0.95" /></g><g
           transform="translate(26.6665,45.9189)"
           id="g24"><path
             id="path26"
             style="fill:#000000;fill-opacity:1;fill-rule:nonzero;stroke:none"
             d="M 0,0 C 0,0.722 0.607,1.216 1.292,1.216 2.241,1.216 2.773,0.646 3.267,0 l 12.992,-16.905 2.203,-3.153 h 0.039 l -0.114,3.153 v 15.462 c 0,1.443 0.721,2.659 2.127,2.659 0.684,0 1.292,-0.494 1.292,-1.216 0,-0.456 -0.266,-0.912 -0.722,-1.102 0,0 -0.266,-0.113 -0.266,-0.494 v -20.969 c 0,-0.38 0.266,-0.494 0.266,-0.494 0.456,-0.191 0.722,-0.646 0.722,-1.102 0,-0.722 -0.608,-1.215 -1.292,-1.215 -0.798,0 -1.329,0.417 -1.747,0.987 L 5.546,-7.256 3.343,-4.141 H 3.305 l 0.114,-3.115 v -15.461 c 0,-1.444 -0.722,-2.659 -2.127,-2.659 -0.685,0 -1.292,0.493 -1.292,1.215 0,0.456 0.266,0.911 0.722,1.102 0,0 0.266,0.114 0.266,0.494 v 20.969 c 0,0.381 -0.266,0.494 -0.266,0.494 C 0.266,-0.912 0,-0.456 0,0" /></g><g
           transform="translate(68.3765,33.9145)"
           id="g28"><path
             id="path30"
             style="fill:#000000;fill-opacity:1;fill-rule:nonzero;stroke:none"
             d="m 0,0 h 8.434 c 0.683,0 1.292,-0.494 1.292,-1.216 0,-0.456 -0.267,-0.911 -0.722,-1.101 0,0 -0.267,-0.114 -0.267,-0.495 v -5.052 c 0,-0.304 -0.075,-0.57 -0.265,-0.798 -2.584,-3.343 -6.155,-4.938 -10.371,-4.938 -7.447,0 -13.449,6.116 -13.449,13.524 0,3.647 1.368,7.028 3.951,9.612 2.507,2.506 5.926,3.912 9.498,3.912 3.039,0 6.04,-1.026 8.395,-2.887 C 6.838,10.333 6.99,9.953 6.99,9.573 6.99,8.89 6.458,8.282 5.774,8.282 c -0.266,0 -0.531,0.114 -0.759,0.265 -1.976,1.634 -4.369,2.47 -6.914,2.47 -6.117,0 -11.018,-4.976 -11.018,-11.093 0,-6.078 4.939,-11.093 11.018,-11.093 3.38,0 6.078,1.14 8.205,3.723 v 4.293 c 0,0.228 0,0.532 0.19,0.722 H 0 c -0.646,0 -1.216,0.532 -1.216,1.178 C -1.216,-0.532 -0.684,0 0,0" /></g><g
           transform="translate(92.9907,40.4868)"
           id="g32"><path
             id="path34"
             style="fill:#000000;fill-opacity:1;fill-rule:nonzero;stroke:none"
             d="M 0,0 -0.949,3.039 H -0.988 L -1.899,0 -5.774,-10.143 H 3.875 Z M 0.456,5.888 9.003,-17.02 c 0.077,-0.265 0.267,-0.417 0.495,-0.455 0.569,-0.152 0.949,-0.608 0.949,-1.216 0,-0.76 -0.683,-1.253 -1.405,-1.253 -1.14,0 -1.938,0.949 -2.318,1.899 l -2.013,5.47 H -6.61 l -2.014,-5.47 c -0.379,-0.95 -1.177,-1.899 -2.317,-1.899 -0.722,0 -1.406,0.493 -1.406,1.253 0,0.608 0.381,1.064 0.951,1.216 0.228,0.038 0.417,0.19 0.493,0.455 l 8.548,22.908 c 0.228,0.646 0.797,0.95 1.406,0.95 0.607,0 1.177,-0.304 1.405,-0.95" /></g><g
           transform="translate(110.7295,34.5981)"
           id="g36"><path
             id="path38"
             style="fill:#000000;fill-opacity:1;fill-rule:nonzero;stroke:none"
             d="m 0,0 h 8.016 c 2.773,0 5.052,2.242 5.052,5.015 0,2.811 -2.241,5.09 -5.052,5.09 H -0.19 C 0,9.916 0,9.611 0,9.383 Z M -2.431,-11.283 V 9.725 c 0,0.38 -0.266,0.494 -0.266,0.494 -0.456,0.19 -0.722,0.646 -0.722,1.102 0,0.722 0.608,1.216 1.292,1.216 H 8.016 c 4.141,0 7.522,-3.381 7.522,-7.522 0,-3.343 -2.318,-6.307 -5.433,-7.18 l 5.129,-8.928 c 0.114,-0.228 0.342,-0.38 0.57,-0.38 h 0.152 c 0.569,0 1.101,-0.531 1.101,-1.139 0,-0.874 -0.722,-1.444 -1.596,-1.444 -0.911,0 -1.747,0.646 -2.203,1.444 L 7.484,-2.431 H 0 v -9.004 c 0,-1.443 -0.722,-2.659 -2.127,-2.659 -0.684,0 -1.292,0.494 -1.292,1.216 0,0.456 0.266,0.912 0.722,1.102 0,0 0.266,0.113 0.266,0.493" /></g><g
           transform="translate(144.1958,40.4868)"
           id="g40"><path
             id="path42"
             style="fill:#000000;fill-opacity:1;fill-rule:nonzero;stroke:none"
             d="M 0,0 -0.949,3.039 H -0.987 L -1.899,0 -5.774,-10.143 H 3.875 Z M 0.456,5.888 9.003,-17.02 c 0.077,-0.265 0.267,-0.417 0.495,-0.455 0.569,-0.152 0.949,-0.608 0.949,-1.216 0,-0.76 -0.683,-1.253 -1.405,-1.253 -1.14,0 -1.938,0.949 -2.318,1.899 l -2.013,5.47 H -6.61 l -2.014,-5.47 c -0.379,-0.95 -1.177,-1.899 -2.317,-1.899 -0.722,0 -1.405,0.493 -1.405,1.253 0,0.608 0.38,1.064 0.95,1.216 0.228,0.038 0.417,0.19 0.493,0.455 l 8.548,22.908 c 0.228,0.646 0.797,0.95 1.406,0.95 0.607,0 1.177,-0.304 1.405,-0.95" /></g><g
           transform="translate(153.9189,44.7036)"
           id="g44"><path
             id="path46"
             style="fill:#000000;fill-opacity:1;fill-rule:nonzero;stroke:none"
             d="m 0,0 c -0.57,0.114 -0.912,0.57 -0.912,1.178 0,0.835 0.684,1.253 1.444,1.253 0.988,0 1.747,-0.683 2.089,-1.557 l 6.99,-18.159 0.836,-2.849 h 0.038 l 0.874,2.849 6.99,18.159 c 0.342,0.874 1.102,1.557 2.089,1.557 0.76,0 1.444,-0.418 1.444,-1.253 C 21.882,0.57 21.54,0.114 20.97,0 20.742,-0.038 20.514,-0.19 20.438,-0.418 l -8.775,-22.793 c -0.152,-0.533 -0.608,-0.95 -1.178,-0.95 -0.57,0 -1.026,0.417 -1.177,0.95 L 0.532,-0.418 C 0.456,-0.19 0.228,-0.038 0,0" /></g><g
           transform="translate(183.3965,44.7036)"
           id="g48"><path
             id="path50"
             style="fill:#000000;fill-opacity:1;fill-rule:nonzero;stroke:none"
             d="m 0,0 c 0.19,-0.19 0.19,-0.494 0.19,-0.722 v -9.269 h 11.814 c 0.684,0 1.216,-0.57 1.216,-1.216 0,-0.684 -0.532,-1.216 -1.216,-1.216 H 0.19 v -8.585 c 0,-0.228 0,-0.532 -0.19,-0.722 h 14.968 c 0.683,0 1.215,-0.494 1.215,-1.178 0,-0.683 -0.532,-1.253 -1.215,-1.253 H -1.937 c -0.685,0 -1.292,0.494 -1.292,1.215 0,0.456 0.266,0.912 0.722,1.102 0,0 0.265,0.114 0.265,0.494 v 20.97 c 0,0.38 -0.265,0.494 -0.265,0.494 -0.456,0.19 -0.722,0.646 -0.722,1.101 0,0.722 0.607,1.216 1.292,1.216 h 16.183 c 0.684,0 1.215,-0.57 1.215,-1.216 C 15.461,0.532 14.93,0 14.246,0 Z" /></g><g
           transform="translate(202.3896,33.8008)"
           id="g52"><path
             id="path54"
             style="fill:#000000;fill-opacity:1;fill-rule:nonzero;stroke:none"
             d="m 0,0 c 0,7.218 6.002,13.562 13.41,13.562 2.28,0 4.521,-0.532 6.572,-1.596 0.38,-0.228 0.608,-0.645 0.608,-1.101 0,-0.646 -0.494,-1.254 -1.215,-1.254 -0.19,0 -0.38,0.076 -0.57,0.152 -1.558,0.836 -3.343,1.368 -5.319,1.368 C 7.408,11.131 2.431,6.078 2.431,0 c 0,-6.041 5.053,-11.055 11.093,-11.055 2.09,0 4.179,0.57 5.965,1.747 0.227,0.152 0.455,0.19 0.683,0.19 0.646,0 1.216,-0.531 1.216,-1.215 0,-0.418 -0.19,-0.836 -0.57,-1.064 -2.203,-1.368 -4.711,-2.089 -7.294,-2.089 C 5.926,-13.486 0,-7.18 0,0" /></g><g
           transform="translate(239.9961,40.4868)"
           id="g56"><path
             id="path58"
             style="fill:#000000;fill-opacity:1;fill-rule:nonzero;stroke:none"
             d="M 0,0 -0.95,3.039 H -0.988 L -1.899,0 -5.774,-10.143 H 3.875 Z M 0.456,5.888 9.003,-17.02 c 0.077,-0.265 0.267,-0.417 0.495,-0.455 0.569,-0.152 0.949,-0.608 0.949,-1.216 0,-0.76 -0.684,-1.253 -1.405,-1.253 -1.14,0 -1.938,0.949 -2.318,1.899 l -2.014,5.47 H -6.61 l -2.014,-5.47 c -0.379,-0.95 -1.177,-1.899 -2.317,-1.899 -0.722,0 -1.406,0.493 -1.406,1.253 0,0.608 0.381,1.064 0.951,1.216 0.228,0.038 0.417,0.19 0.493,0.455 l 8.548,22.908 c 0.228,0.646 0.797,0.95 1.405,0.95 0.608,0 1.178,-0.304 1.406,-0.95" /></g><g
           transform="translate(2.3047,0.7607)"
           id="g60"><path
             id="path62"
             style="fill:#000000;fill-opacity:1;fill-rule:nonzero;stroke:none"
             d="M 0,0 H 4.956 V -0.643 H -0.753 V 9.809 H 0 Z" /></g><g
           transform="translate(12.7192,0.5098)"
           id="g64"><path
             id="path66"
             style="fill:#000000;fill-opacity:1;fill-rule:nonzero;stroke:none"
             d="M 0,0 C 0.285,0 0.547,0.031 0.786,0.092 1.025,0.154 1.247,0.24 1.451,0.351 1.656,0.461 1.847,0.593 2.023,0.746 2.201,0.898 2.375,1.063 2.548,1.241 V 3.154 C 1.849,3.134 1.247,3.081 0.742,2.995 0.237,2.909 -0.179,2.792 -0.506,2.644 -0.834,2.497 -1.075,2.32 -1.23,2.116 -1.385,1.912 -1.462,1.679 -1.462,1.418 c 0,-0.246 0.04,-0.46 0.121,-0.639 C -1.26,0.6 -1.152,0.452 -1.02,0.336 -0.887,0.22 -0.731,0.135 -0.554,0.081 -0.377,0.027 -0.192,0 0,0 m 2.955,-0.392 c -0.148,0 -0.24,0.069 -0.274,0.207 L 2.578,0.753 C 2.375,0.556 2.175,0.379 1.976,0.222 1.776,0.064 1.568,-0.069 1.352,-0.178 1.135,-0.286 0.901,-0.369 0.65,-0.425 0.398,-0.481 0.123,-0.51 -0.177,-0.51 c -0.252,0 -0.495,0.037 -0.732,0.111 -0.236,0.074 -0.445,0.187 -0.628,0.34 -0.182,0.152 -0.328,0.348 -0.439,0.587 -0.111,0.239 -0.166,0.526 -0.166,0.86 0,0.311 0.088,0.599 0.266,0.865 0.177,0.266 0.454,0.497 0.831,0.694 0.377,0.197 0.861,0.354 1.455,0.473 0.593,0.118 1.306,0.187 2.138,0.206 v 0.769 c 0,0.679 -0.147,1.202 -0.44,1.569 C 1.815,6.331 1.381,6.515 0.805,6.515 0.45,6.515 0.149,6.465 -0.1,6.367 -0.349,6.268 -0.559,6.16 -0.731,6.042 -0.904,5.924 -1.044,5.815 -1.152,5.717 -1.261,5.618 -1.352,5.569 -1.426,5.569 c -0.098,0 -0.172,0.044 -0.221,0.133 l -0.126,0.214 c 0.384,0.384 0.788,0.675 1.211,0.872 0.424,0.196 0.904,0.295 1.441,0.295 0.394,0 0.739,-0.062 1.034,-0.188 C 2.208,6.77 2.453,6.59 2.648,6.355 2.842,6.122 2.989,5.838 3.087,5.506 3.186,5.174 3.235,4.803 3.235,4.395 v -4.787 z" /></g><path
           id="path68"
           style="fill:#000000;fill-opacity:1;fill-rule:nonzero;stroke:none"
           d="M 26.871,0.118 H 26.11 v 10.451 h 0.761 z" /><g
           transform="translate(32.1299,0.1181)"
           id="g70"><path
             id="path72"
             style="fill:#000000;fill-opacity:1;fill-rule:nonzero;stroke:none"
             d="m 0,0 v 7.349 h 0.384 c 0.128,0 0.201,-0.061 0.221,-0.184 L 0.672,6.057 C 1.007,6.48 1.397,6.821 1.843,7.08 2.289,7.338 2.785,7.467 3.331,7.467 3.735,7.467 4.09,7.403 4.398,7.275 4.706,7.147 4.961,6.962 5.163,6.722 5.365,6.48 5.518,6.189 5.621,5.85 5.724,5.51 5.776,5.126 5.776,4.697 V 0 H 5.074 v 4.697 c 0,0.69 -0.157,1.23 -0.472,1.622 C 4.287,6.71 3.804,6.906 3.154,6.906 2.671,6.906 2.223,6.782 1.81,6.533 1.396,6.284 1.026,5.943 0.702,5.51 V 0 Z" /></g><g
           transform="translate(42.3521,0.1181)"
           id="g74"><path
             id="path76"
             style="fill:#000000;fill-opacity:1;fill-rule:nonzero;stroke:none"
             d="m 0,0 v 7.349 h 0.384 c 0.128,0 0.202,-0.061 0.221,-0.184 L 0.672,6.057 C 1.007,6.48 1.397,6.821 1.843,7.08 2.288,7.338 2.785,7.467 3.331,7.467 3.735,7.467 4.091,7.403 4.398,7.275 4.706,7.147 4.961,6.962 5.163,6.722 5.365,6.48 5.518,6.189 5.621,5.85 5.725,5.51 5.776,5.126 5.776,4.697 V 0 H 5.074 v 4.697 c 0,0.69 -0.157,1.23 -0.472,1.622 C 4.286,6.71 3.804,6.906 3.154,6.906 2.671,6.906 2.223,6.782 1.81,6.533 1.396,6.284 1.026,5.943 0.702,5.51 V 0 Z" /></g><g
           transform="translate(55.3735,0.5762)"
           id="g78"><path
             id="path80"
             style="fill:#000000;fill-opacity:1;fill-rule:nonzero;stroke:none"
             d="m 0,0 c 0.438,0 0.821,0.075 1.148,0.225 0.328,0.15 0.602,0.366 0.821,0.647 0.219,0.28 0.383,0.619 0.49,1.015 0.109,0.396 0.163,0.841 0.163,1.333 0,0.488 -0.054,0.931 -0.163,1.33 C 2.352,4.949 2.188,5.29 1.969,5.573 1.75,5.856 1.476,6.074 1.148,6.227 0.821,6.379 0.438,6.456 0,6.456 -0.438,6.456 -0.821,6.379 -1.148,6.227 -1.476,6.074 -1.749,5.856 -1.968,5.573 -2.188,5.29 -2.353,4.949 -2.463,4.55 -2.574,4.151 -2.629,3.708 -2.629,3.22 c 0,-0.492 0.055,-0.937 0.166,-1.333 0.11,-0.396 0.275,-0.735 0.495,-1.015 0.219,-0.281 0.492,-0.497 0.82,-0.647 C -0.821,0.075 -0.438,0 0,0 M 0,7.009 C 0.527,7.009 0.999,6.919 1.415,6.74 1.831,6.56 2.181,6.305 2.467,5.975 2.752,5.645 2.971,5.248 3.121,4.783 3.271,4.317 3.346,3.796 3.346,3.22 3.346,2.644 3.271,2.125 3.121,1.662 2.971,1.199 2.752,0.802 2.467,0.473 2.181,0.143 1.831,-0.111 1.415,-0.288 0.999,-0.465 0.527,-0.554 0,-0.554 c -0.527,0 -0.999,0.089 -1.414,0.266 -0.417,0.177 -0.769,0.431 -1.057,0.761 -0.288,0.329 -0.507,0.726 -0.657,1.189 -0.15,0.463 -0.226,0.982 -0.226,1.558 0,0.576 0.076,1.097 0.226,1.563 0.15,0.465 0.369,0.862 0.657,1.192 0.288,0.33 0.64,0.585 1.057,0.765 0.415,0.179 0.887,0.269 1.414,0.269" /></g><g
           transform="translate(65.3745,0.1181)"
           id="g82"><path
             id="path84"
             style="fill:#000000;fill-opacity:1;fill-rule:nonzero;stroke:none"
             d="m 0,0 h -0.621 l -3.102,7.349 h 0.554 c 0.069,0 0.125,-0.018 0.167,-0.055 0.041,-0.037 0.072,-0.078 0.092,-0.122 l 2.423,-5.798 c 0.049,-0.114 0.086,-0.222 0.11,-0.325 0.025,-0.104 0.049,-0.207 0.074,-0.311 0.025,0.104 0.051,0.208 0.078,0.315 0.027,0.105 0.062,0.212 0.107,0.321 l 2.437,5.798 c 0.025,0.054 0.058,0.097 0.1,0.129 0.042,0.032 0.092,0.048 0.151,0.048 h 0.533 z" /></g><g
           transform="translate(73.8247,0.5098)"
           id="g86"><path
             id="path88"
             style="fill:#000000;fill-opacity:1;fill-rule:nonzero;stroke:none"
             d="M 0,0 C 0.285,0 0.547,0.031 0.786,0.092 1.025,0.154 1.247,0.24 1.451,0.351 1.655,0.461 1.846,0.593 2.023,0.746 2.201,0.898 2.375,1.063 2.548,1.241 V 3.154 C 1.849,3.134 1.247,3.081 0.742,2.995 0.237,2.909 -0.179,2.792 -0.506,2.644 -0.834,2.497 -1.075,2.32 -1.23,2.116 -1.385,1.912 -1.462,1.679 -1.462,1.418 c 0,-0.246 0.04,-0.46 0.121,-0.639 C -1.26,0.6 -1.152,0.452 -1.02,0.336 -0.887,0.22 -0.731,0.135 -0.554,0.081 -0.377,0.027 -0.192,0 0,0 m 2.955,-0.392 c -0.148,0 -0.24,0.069 -0.274,0.207 L 2.578,0.753 C 2.375,0.556 2.175,0.379 1.976,0.222 1.776,0.064 1.568,-0.069 1.352,-0.178 1.135,-0.286 0.901,-0.369 0.65,-0.425 0.398,-0.481 0.123,-0.51 -0.177,-0.51 c -0.252,0 -0.495,0.037 -0.732,0.111 -0.236,0.074 -0.445,0.187 -0.628,0.34 -0.182,0.152 -0.328,0.348 -0.439,0.587 -0.111,0.239 -0.166,0.526 -0.166,0.86 0,0.311 0.088,0.599 0.266,0.865 0.177,0.266 0.454,0.497 0.831,0.694 0.376,0.197 0.861,0.354 1.455,0.473 0.593,0.118 1.306,0.187 2.138,0.206 v 0.769 c 0,0.679 -0.147,1.202 -0.44,1.569 C 1.815,6.331 1.381,6.515 0.805,6.515 0.45,6.515 0.148,6.465 -0.1,6.367 -0.349,6.268 -0.559,6.16 -0.731,6.042 -0.904,5.924 -1.044,5.815 -1.152,5.717 -1.261,5.618 -1.352,5.569 -1.426,5.569 c -0.098,0 -0.172,0.044 -0.221,0.133 l -0.126,0.214 c 0.384,0.384 0.788,0.675 1.211,0.872 0.424,0.196 0.904,0.295 1.441,0.295 0.393,0 0.738,-0.062 1.034,-0.188 C 2.208,6.77 2.453,6.59 2.648,6.355 2.842,6.122 2.989,5.838 3.087,5.506 3.186,5.174 3.235,4.803 3.235,4.395 v -4.787 z" /></g><g
           transform="translate(86.3438,6.4848)"
           id="g90"><path
             id="path92"
             style="fill:#000000;fill-opacity:1;fill-rule:nonzero;stroke:none"
             d="m 0,0 c -0.024,-0.025 -0.048,-0.045 -0.07,-0.062 -0.022,-0.018 -0.053,-0.026 -0.093,-0.026 -0.048,0 -0.116,0.033 -0.203,0.099 -0.086,0.067 -0.2,0.139 -0.343,0.218 -0.143,0.079 -0.321,0.151 -0.535,0.218 -0.214,0.067 -0.474,0.1 -0.779,0.1 -0.424,0 -0.8,-0.075 -1.127,-0.226 -0.328,-0.15 -0.603,-0.365 -0.828,-0.646 -0.224,-0.28 -0.395,-0.62 -0.513,-1.019 -0.118,-0.399 -0.177,-0.847 -0.177,-1.344 0,-0.518 0.06,-0.976 0.181,-1.374 0.121,-0.399 0.292,-0.735 0.513,-1.008 0.222,-0.274 0.49,-0.482 0.806,-0.625 0.314,-0.142 0.664,-0.214 1.048,-0.214 0.355,0 0.652,0.042 0.891,0.126 0.238,0.083 0.435,0.175 0.59,0.273 0.155,0.098 0.279,0.19 0.369,0.273 0.092,0.084 0.164,0.126 0.218,0.126 0.065,0 0.114,-0.025 0.148,-0.074 L 0.288,-5.421 C 0.175,-5.569 0.032,-5.707 -0.14,-5.835 -0.312,-5.963 -0.507,-6.074 -0.724,-6.167 -0.94,-6.261 -1.175,-6.333 -1.429,-6.385 c -0.254,-0.052 -0.518,-0.078 -0.794,-0.078 -0.468,0 -0.895,0.085 -1.281,0.255 -0.387,0.17 -0.72,0.416 -0.998,0.739 -0.278,0.322 -0.495,0.717 -0.65,1.185 -0.155,0.468 -0.232,1 -0.232,1.596 0,0.561 0.073,1.073 0.221,1.536 0.148,0.463 0.363,0.861 0.646,1.196 0.284,0.335 0.631,0.595 1.042,0.78 0.411,0.184 0.883,0.277 1.414,0.277 0.478,0 0.903,-0.077 1.274,-0.229 0.372,-0.153 0.696,-0.36 0.972,-0.621 z" /></g><path
           id="path94"
           style="fill:#000000;fill-opacity:1;fill-rule:nonzero;stroke:none"
           d="m 91.367,0.118 h -0.702 v 7.349 h 0.702 z m 0.31,9.883 C 91.677,9.912 91.658,9.83 91.621,9.753 91.584,9.677 91.536,9.609 91.477,9.55 91.418,9.491 91.349,9.444 91.271,9.41 91.191,9.375 91.108,9.358 91.019,9.358 c -0.088,0 -0.172,0.017 -0.251,0.052 -0.079,0.034 -0.147,0.081 -0.207,0.14 -0.059,0.059 -0.105,0.127 -0.14,0.203 -0.034,0.077 -0.052,0.159 -0.052,0.248 0,0.088 0.018,0.173 0.052,0.254 0.035,0.082 0.081,0.152 0.14,0.211 0.06,0.059 0.128,0.106 0.207,0.14 0.079,0.035 0.163,0.052 0.251,0.052 0.089,0 0.172,-0.017 0.252,-0.052 0.078,-0.034 0.147,-0.081 0.206,-0.14 0.059,-0.059 0.107,-0.129 0.144,-0.211 0.037,-0.081 0.056,-0.166 0.056,-0.254" /><g
           transform="translate(100.665,10.688)"
           id="g96"><path
             id="path98"
             style="fill:#000000;fill-opacity:1;fill-rule:nonzero;stroke:none"
             d="m 0,0 -1.595,-1.869 c -0.04,-0.049 -0.08,-0.083 -0.122,-0.099 -0.042,-0.018 -0.092,-0.027 -0.152,-0.027 H -2.29 l 1.16,1.758 c 0.054,0.089 0.111,0.151 0.17,0.185 C -0.901,-0.018 -0.812,0 -0.694,0 Z m -1.669,-10.112 c 0.439,0 0.821,0.075 1.148,0.225 0.328,0.151 0.601,0.366 0.82,0.647 0.22,0.28 0.383,0.619 0.492,1.015 0.108,0.396 0.162,0.841 0.162,1.333 0,0.488 -0.054,0.931 -0.162,1.33 -0.109,0.399 -0.272,0.74 -0.492,1.023 -0.219,0.283 -0.492,0.501 -0.82,0.654 -0.327,0.152 -0.709,0.229 -1.148,0.229 -0.438,0 -0.821,-0.077 -1.148,-0.229 -0.328,-0.153 -0.601,-0.371 -0.821,-0.654 -0.218,-0.283 -0.383,-0.624 -0.494,-1.023 -0.111,-0.399 -0.166,-0.842 -0.166,-1.33 0,-0.492 0.055,-0.937 0.166,-1.333 0.111,-0.396 0.276,-0.735 0.494,-1.015 0.22,-0.281 0.493,-0.496 0.821,-0.647 0.327,-0.15 0.71,-0.225 1.148,-0.225 m 0,7.009 c 0.527,0 0.999,-0.089 1.415,-0.269 0.416,-0.18 0.766,-0.435 1.052,-0.765 0.285,-0.33 0.503,-0.727 0.654,-1.192 0.15,-0.466 0.225,-0.986 0.225,-1.563 0,-0.576 -0.075,-1.095 -0.225,-1.558 -0.151,-0.463 -0.369,-0.86 -0.654,-1.189 -0.286,-0.33 -0.636,-0.584 -1.052,-0.761 -0.416,-0.177 -0.888,-0.266 -1.415,-0.266 -0.527,0 -0.998,0.089 -1.414,0.266 -0.417,0.177 -0.769,0.431 -1.057,0.761 -0.288,0.329 -0.507,0.726 -0.657,1.189 -0.15,0.463 -0.225,0.982 -0.225,1.558 0,0.577 0.075,1.097 0.225,1.563 0.15,0.465 0.369,0.862 0.657,1.192 0.288,0.33 0.64,0.585 1.057,0.765 0.416,0.18 0.887,0.269 1.414,0.269" /></g><g
           transform="translate(106.4189,0.1181)"
           id="g100"><path
             id="path102"
             style="fill:#000000;fill-opacity:1;fill-rule:nonzero;stroke:none"
             d="m 0,0 v 7.349 h 0.384 c 0.128,0 0.202,-0.061 0.221,-0.184 L 0.672,6.057 C 1.007,6.48 1.397,6.821 1.843,7.08 2.289,7.338 2.785,7.467 3.331,7.467 3.735,7.467 4.09,7.403 4.398,7.275 4.706,7.147 4.961,6.962 5.163,6.722 5.365,6.48 5.518,6.189 5.621,5.85 5.724,5.51 5.776,5.126 5.776,4.697 V 0 H 5.075 v 4.697 c 0,0.69 -0.158,1.23 -0.473,1.622 C 4.287,6.71 3.804,6.906 3.154,6.906 2.671,6.906 2.223,6.782 1.81,6.533 1.396,6.284 1.026,5.943 0.702,5.51 V 0 Z" /></g><g
           transform="translate(127.1372,9.2988)"
           id="g104"><path
             id="path106"
             style="fill:#000000;fill-opacity:1;fill-rule:nonzero;stroke:none"
             d="m 0,0 c -0.044,-0.083 -0.108,-0.125 -0.192,-0.125 -0.064,0 -0.147,0.045 -0.248,0.136 -0.102,0.092 -0.239,0.193 -0.412,0.303 -0.172,0.111 -0.389,0.213 -0.648,0.307 -0.259,0.093 -0.579,0.14 -0.959,0.14 -0.381,0 -0.716,-0.054 -1.004,-0.162 C -3.752,0.49 -3.995,0.343 -4.19,0.155 c -0.195,-0.187 -0.343,-0.404 -0.444,-0.65 -0.102,-0.246 -0.152,-0.504 -0.152,-0.775 0,-0.355 0.075,-0.647 0.225,-0.879 0.15,-0.231 0.349,-0.428 0.596,-0.591 0.246,-0.162 0.526,-0.299 0.839,-0.41 0.313,-0.111 0.635,-0.22 0.965,-0.329 0.331,-0.108 0.653,-0.228 0.966,-0.358 0.313,-0.13 0.592,-0.294 0.839,-0.491 0.247,-0.197 0.445,-0.44 0.596,-0.728 0.15,-0.288 0.225,-0.646 0.225,-1.074 0,-0.438 -0.075,-0.851 -0.225,-1.237 -0.15,-0.387 -0.368,-0.723 -0.654,-1.008 -0.285,-0.286 -0.635,-0.512 -1.049,-0.676 -0.413,-0.165 -0.886,-0.248 -1.418,-0.248 -0.689,0 -1.283,0.122 -1.78,0.366 -0.497,0.244 -0.933,0.577 -1.307,1.001 l 0.207,0.325 c 0.059,0.073 0.128,0.11 0.206,0.11 0.045,0 0.102,-0.029 0.17,-0.088 0.07,-0.06 0.154,-0.132 0.252,-0.218 0.099,-0.086 0.217,-0.18 0.355,-0.281 0.138,-0.101 0.299,-0.194 0.481,-0.281 0.182,-0.086 0.392,-0.158 0.629,-0.218 0.236,-0.059 0.505,-0.088 0.806,-0.088 0.414,0 0.784,0.063 1.109,0.189 0.326,0.125 0.601,0.296 0.825,0.513 0.224,0.216 0.396,0.473 0.514,0.771 0.118,0.299 0.178,0.617 0.178,0.957 0,0.369 -0.076,0.673 -0.226,0.912 -0.15,0.239 -0.349,0.438 -0.596,0.599 -0.246,0.16 -0.526,0.293 -0.839,0.402 -0.313,0.108 -0.635,0.214 -0.965,0.318 -0.331,0.103 -0.653,0.219 -0.966,0.347 -0.313,0.128 -0.592,0.291 -0.839,0.491 -0.247,0.199 -0.445,0.448 -0.595,0.746 -0.151,0.298 -0.226,0.671 -0.226,1.119 0,0.349 0.066,0.687 0.199,1.012 0.134,0.325 0.329,0.611 0.585,0.86 0.256,0.249 0.573,0.449 0.951,0.599 0.377,0.15 0.807,0.225 1.29,0.225 0.543,0 1.029,-0.086 1.461,-0.259 0.431,-0.172 0.824,-0.436 1.179,-0.79 z" /></g><g
           transform="translate(134.4712,0.5762)"
           id="g108"><path
             id="path110"
             style="fill:#000000;fill-opacity:1;fill-rule:nonzero;stroke:none"
             d="m 0,0 c 0.438,0 0.821,0.075 1.148,0.225 0.328,0.15 0.602,0.366 0.821,0.647 0.219,0.28 0.383,0.619 0.49,1.015 0.109,0.396 0.163,0.841 0.163,1.333 0,0.488 -0.054,0.931 -0.163,1.33 C 2.352,4.949 2.188,5.29 1.969,5.573 1.75,5.856 1.476,6.074 1.148,6.227 0.821,6.379 0.438,6.456 0,6.456 -0.438,6.456 -0.821,6.379 -1.148,6.227 -1.476,6.074 -1.749,5.856 -1.968,5.573 -2.188,5.29 -2.353,4.949 -2.463,4.55 -2.574,4.151 -2.629,3.708 -2.629,3.22 c 0,-0.492 0.055,-0.937 0.166,-1.333 0.11,-0.396 0.275,-0.735 0.495,-1.015 0.219,-0.281 0.492,-0.497 0.82,-0.647 C -0.821,0.075 -0.438,0 0,0 M 0,7.009 C 0.527,7.009 0.999,6.919 1.415,6.74 1.831,6.56 2.182,6.305 2.467,5.975 2.752,5.645 2.971,5.248 3.121,4.783 3.271,4.317 3.346,3.796 3.346,3.22 3.346,2.644 3.271,2.125 3.121,1.662 2.971,1.199 2.752,0.802 2.467,0.473 2.182,0.143 1.831,-0.111 1.415,-0.288 0.999,-0.465 0.527,-0.554 0,-0.554 c -0.527,0 -0.998,0.089 -1.414,0.266 -0.417,0.177 -0.769,0.431 -1.057,0.761 -0.287,0.329 -0.507,0.726 -0.657,1.189 -0.15,0.463 -0.226,0.982 -0.226,1.558 0,0.576 0.076,1.097 0.226,1.563 0.15,0.465 0.37,0.862 0.657,1.192 0.288,0.33 0.64,0.585 1.057,0.765 0.416,0.179 0.887,0.269 1.414,0.269" /></g><g
           transform="translate(146.7319,6.4848)"
           id="g112"><path
             id="path114"
             style="fill:#000000;fill-opacity:1;fill-rule:nonzero;stroke:none"
             d="m 0,0 c -0.024,-0.025 -0.048,-0.045 -0.07,-0.062 -0.022,-0.018 -0.053,-0.026 -0.092,-0.026 -0.049,0 -0.117,0.033 -0.203,0.099 -0.087,0.067 -0.201,0.139 -0.343,0.218 -0.144,0.079 -0.322,0.151 -0.536,0.218 -0.214,0.067 -0.474,0.1 -0.779,0.1 -0.424,0 -0.8,-0.075 -1.127,-0.226 -0.328,-0.15 -0.603,-0.365 -0.828,-0.646 -0.223,-0.28 -0.395,-0.62 -0.513,-1.019 -0.118,-0.399 -0.177,-0.847 -0.177,-1.344 0,-0.518 0.061,-0.976 0.181,-1.374 0.121,-0.399 0.292,-0.735 0.513,-1.008 0.222,-0.274 0.49,-0.482 0.806,-0.625 0.314,-0.142 0.664,-0.214 1.048,-0.214 0.355,0 0.652,0.042 0.891,0.126 0.238,0.083 0.435,0.175 0.59,0.273 0.156,0.098 0.279,0.19 0.369,0.273 0.092,0.084 0.165,0.126 0.218,0.126 0.065,0 0.114,-0.025 0.148,-0.074 L 0.288,-5.421 C 0.175,-5.569 0.032,-5.707 -0.14,-5.835 -0.312,-5.963 -0.507,-6.074 -0.724,-6.167 -0.94,-6.261 -1.176,-6.333 -1.429,-6.385 c -0.254,-0.052 -0.518,-0.078 -0.794,-0.078 -0.468,0 -0.895,0.085 -1.282,0.255 -0.386,0.17 -0.719,0.416 -0.997,0.739 -0.278,0.322 -0.495,0.717 -0.65,1.185 -0.155,0.468 -0.232,1 -0.232,1.596 0,0.561 0.073,1.073 0.221,1.536 0.148,0.463 0.363,0.861 0.646,1.196 0.284,0.335 0.631,0.595 1.042,0.78 0.411,0.184 0.883,0.277 1.414,0.277 0.478,0 0.903,-0.077 1.274,-0.229 0.372,-0.153 0.696,-0.36 0.972,-0.621 z" /></g><path
           id="path116"
           style="fill:#000000;fill-opacity:1;fill-rule:nonzero;stroke:none"
           d="m 151.755,0.118 h -0.702 v 7.349 h 0.702 z m 0.31,9.883 c 0,-0.089 -0.019,-0.171 -0.056,-0.248 -0.037,-0.076 -0.085,-0.144 -0.143,-0.203 -0.06,-0.059 -0.129,-0.106 -0.207,-0.14 -0.079,-0.035 -0.163,-0.052 -0.251,-0.052 -0.089,0 -0.173,0.017 -0.252,0.052 -0.078,0.034 -0.147,0.081 -0.206,0.14 -0.059,0.059 -0.106,0.127 -0.141,0.203 -0.034,0.077 -0.052,0.159 -0.052,0.248 0,0.088 0.018,0.173 0.052,0.254 0.035,0.082 0.082,0.152 0.141,0.211 0.059,0.059 0.128,0.106 0.206,0.14 0.079,0.035 0.163,0.052 0.252,0.052 0.088,0 0.172,-0.017 0.251,-0.052 0.078,-0.034 0.147,-0.081 0.207,-0.14 0.058,-0.059 0.106,-0.129 0.143,-0.211 0.037,-0.081 0.056,-0.166 0.056,-0.254" /><g
           transform="translate(158.3208,0.5098)"
           id="g118"><path
             id="path120"
             style="fill:#000000;fill-opacity:1;fill-rule:nonzero;stroke:none"
             d="m 0,0 c 0.286,0 0.548,0.031 0.787,0.092 0.238,0.062 0.46,0.148 0.665,0.259 0.204,0.11 0.395,0.242 0.572,0.395 0.177,0.152 0.352,0.317 0.524,0.495 V 3.154 C 1.849,3.134 1.247,3.081 0.742,2.995 0.238,2.909 -0.178,2.792 -0.506,2.644 -0.833,2.497 -1.075,2.32 -1.229,2.116 -1.385,1.912 -1.462,1.679 -1.462,1.418 c 0,-0.246 0.04,-0.46 0.122,-0.639 C -1.259,0.6 -1.152,0.452 -1.019,0.336 -0.886,0.22 -0.731,0.135 -0.554,0.081 -0.376,0.027 -0.192,0 0,0 m 2.955,-0.392 c -0.148,0 -0.239,0.069 -0.273,0.207 L 2.578,0.753 C 2.376,0.556 2.175,0.379 1.976,0.222 1.776,0.064 1.568,-0.069 1.352,-0.178 1.135,-0.286 0.901,-0.369 0.65,-0.425 0.399,-0.481 0.123,-0.51 -0.177,-0.51 c -0.251,0 -0.495,0.037 -0.731,0.111 -0.237,0.074 -0.446,0.187 -0.628,0.34 -0.182,0.152 -0.329,0.348 -0.44,0.587 -0.11,0.239 -0.166,0.526 -0.166,0.86 0,0.311 0.089,0.599 0.266,0.865 0.177,0.266 0.454,0.497 0.831,0.694 0.377,0.197 0.861,0.354 1.455,0.473 0.593,0.118 1.306,0.187 2.138,0.206 V 4.395 C 2.548,5.074 2.402,5.597 2.109,5.964 1.816,6.331 1.381,6.515 0.805,6.515 0.451,6.515 0.149,6.465 -0.1,6.367 -0.349,6.268 -0.559,6.16 -0.731,6.042 -0.903,5.924 -1.044,5.815 -1.152,5.717 -1.261,5.618 -1.352,5.569 -1.425,5.569 c -0.099,0 -0.173,0.044 -0.222,0.133 l -0.125,0.214 c 0.383,0.384 0.787,0.675 1.211,0.872 0.423,0.196 0.903,0.295 1.44,0.295 0.394,0 0.739,-0.062 1.034,-0.188 C 2.208,6.77 2.454,6.59 2.648,6.355 2.843,6.122 2.989,5.838 3.087,5.506 3.186,5.174 3.235,4.803 3.235,4.395 v -4.787 z" /></g><path
           id="path122"
           style="fill:#000000;fill-opacity:1;fill-rule:nonzero;stroke:none"
           d="m 166.911,0.118 h -0.702 v 10.747 h 0.702 z" /><g
           transform="translate(180.8706,6.5513)"
           id="g124"><path
             id="path126"
             style="fill:#000000;fill-opacity:1;fill-rule:nonzero;stroke:none"
             d="m 0,0 c -0.035,-0.069 -0.089,-0.103 -0.163,-0.103 -0.054,0 -0.124,0.03 -0.21,0.092 -0.086,0.062 -0.199,0.131 -0.34,0.207 -0.14,0.076 -0.312,0.145 -0.517,0.207 -0.204,0.061 -0.454,0.092 -0.749,0.092 -0.266,0 -0.509,-0.038 -0.728,-0.114 C -2.926,0.305 -3.113,0.203 -3.269,0.075 -3.423,-0.052 -3.544,-0.201 -3.63,-0.371 -3.716,-0.54 -3.76,-0.718 -3.76,-0.905 c 0,-0.23 0.059,-0.422 0.177,-0.574 0.119,-0.152 0.274,-0.282 0.466,-0.391 0.192,-0.108 0.41,-0.201 0.654,-0.279 0.243,-0.079 0.493,-0.158 0.749,-0.237 0.256,-0.078 0.506,-0.166 0.75,-0.262 0.244,-0.096 0.462,-0.215 0.654,-0.358 0.192,-0.143 0.347,-0.318 0.465,-0.524 0.118,-0.207 0.178,-0.458 0.178,-0.754 0,-0.32 -0.059,-0.618 -0.174,-0.894 -0.116,-0.275 -0.284,-0.514 -0.502,-0.716 -0.219,-0.202 -0.489,-0.362 -0.809,-0.48 -0.32,-0.118 -0.685,-0.177 -1.093,-0.177 -0.517,0 -0.963,0.082 -1.338,0.247 -0.374,0.165 -0.708,0.381 -1.004,0.646 l 0.17,0.251 c 0.025,0.04 0.052,0.07 0.082,0.089 0.029,0.02 0.071,0.03 0.125,0.03 0.064,0 0.143,-0.04 0.236,-0.119 0.094,-0.078 0.216,-0.163 0.366,-0.255 0.15,-0.09 0.337,-0.175 0.561,-0.254 0.224,-0.079 0.501,-0.118 0.831,-0.118 0.311,0 0.584,0.043 0.82,0.129 0.236,0.086 0.433,0.203 0.591,0.351 0.158,0.147 0.277,0.321 0.358,0.52 0.082,0.2 0.122,0.41 0.122,0.632 0,0.246 -0.059,0.451 -0.177,0.613 -0.118,0.163 -0.273,0.3 -0.466,0.414 -0.192,0.113 -0.409,0.209 -0.653,0.288 -0.244,0.079 -0.495,0.157 -0.754,0.236 -0.258,0.079 -0.509,0.165 -0.753,0.259 -0.244,0.093 -0.461,0.211 -0.654,0.354 -0.192,0.143 -0.347,0.317 -0.465,0.521 -0.118,0.204 -0.177,0.459 -0.177,0.764 0,0.262 0.056,0.513 0.17,0.754 0.113,0.241 0.274,0.453 0.483,0.635 0.209,0.182 0.464,0.327 0.765,0.436 0.3,0.108 0.638,0.162 1.012,0.162 0.448,0 0.846,-0.065 1.193,-0.194 0.347,-0.13 0.665,-0.329 0.956,-0.596 z" /></g><g
           transform="translate(188.186,7.0615)"
           id="g128"><path
             id="path130"
             style="fill:#000000;fill-opacity:1;fill-rule:nonzero;stroke:none"
             d="m 0,0 c -0.378,0 -0.718,-0.06 -1.018,-0.178 -0.299,-0.118 -0.559,-0.288 -0.777,-0.509 -0.22,-0.222 -0.396,-0.488 -0.532,-0.798 -0.135,-0.31 -0.225,-0.658 -0.269,-1.041 h 4.838 c 0,0.394 -0.054,0.747 -0.162,1.059 C 1.972,-1.154 1.819,-0.889 1.623,-0.672 1.426,-0.456 1.19,-0.29 0.915,-0.174 0.639,-0.058 0.334,0 0,0 M -0.011,0.524 C 0.403,0.524 0.786,0.453 1.138,0.31 1.49,0.167 1.795,-0.041 2.054,-0.314 2.313,-0.588 2.514,-0.923 2.66,-1.323 2.805,-1.721 2.877,-2.18 2.877,-2.696 2.877,-2.805 2.861,-2.878 2.829,-2.918 2.797,-2.958 2.747,-2.977 2.678,-2.977 h -5.303 v -0.14 c 0,-0.552 0.063,-1.037 0.191,-1.455 0.128,-0.419 0.311,-0.77 0.547,-1.053 0.237,-0.283 0.522,-0.496 0.857,-0.639 0.335,-0.143 0.709,-0.214 1.123,-0.214 0.369,0 0.689,0.041 0.96,0.122 0.271,0.081 0.499,0.172 0.683,0.273 0.185,0.101 0.331,0.192 0.44,0.273 0.108,0.082 0.187,0.122 0.236,0.122 0.064,0 0.113,-0.024 0.148,-0.073 L 2.752,-5.998 C 2.633,-6.146 2.477,-6.284 2.283,-6.412 2.088,-6.54 1.872,-6.649 1.633,-6.74 1.394,-6.832 1.138,-6.904 0.864,-6.958 0.591,-7.012 0.317,-7.04 0.041,-7.04 c -0.502,0 -0.96,0.088 -1.374,0.263 -0.413,0.174 -0.769,0.429 -1.064,0.764 -0.297,0.335 -0.526,0.745 -0.687,1.23 -0.162,0.485 -0.243,1.04 -0.243,1.666 0,0.527 0.075,1.013 0.225,1.458 0.15,0.446 0.367,0.83 0.65,1.153 0.284,0.322 0.63,0.574 1.042,0.757 0.41,0.182 0.877,0.273 1.399,0.273" /></g><g
           transform="translate(202.7812,0.5908)"
           id="g132"><path
             id="path134"
             style="fill:#000000;fill-opacity:1;fill-rule:nonzero;stroke:none"
             d="m 0,0 c 0.488,0 0.93,0.125 1.324,0.376 0.395,0.252 0.747,0.602 1.058,1.05 V 5.303 C 2.096,5.722 1.782,6.017 1.439,6.189 1.096,6.362 0.708,6.448 0.274,6.448 -0.16,6.448 -0.54,6.37 -0.865,6.212 -1.191,6.054 -1.463,5.832 -1.683,5.543 -1.902,5.255 -2.068,4.911 -2.179,4.509 -2.29,4.108 -2.345,3.666 -2.345,3.184 -2.345,2.09 -2.143,1.286 -1.738,0.772 -1.334,0.257 -0.754,0 0,0 m 2.697,-0.473 c -0.121,0 -0.192,0.064 -0.212,0.192 L 2.412,0.879 C 2.086,0.436 1.705,0.084 1.269,-0.177 0.833,-0.438 0.343,-0.569 -0.199,-0.569 c -0.903,0 -1.607,0.313 -2.112,0.939 -0.505,0.625 -0.758,1.563 -0.758,2.814 0,0.536 0.07,1.037 0.211,1.503 0.14,0.465 0.348,0.869 0.621,1.211 0.274,0.342 0.609,0.612 1.006,0.809 0.397,0.196 0.854,0.295 1.372,0.295 C 0.639,7.002 1.07,6.91 1.436,6.725 1.8,6.541 2.116,6.271 2.382,5.916 v 4.358 H 3.083 V -0.473 Z" /></g><path
           id="path136"
           style="fill:#000000;fill-opacity:1;fill-rule:nonzero;stroke:none"
           d="m 211.471,0.118 h -0.702 v 7.349 h 0.702 z m 0.31,9.883 c 0,-0.089 -0.018,-0.171 -0.055,-0.248 -0.037,-0.076 -0.085,-0.144 -0.144,-0.203 -0.059,-0.059 -0.128,-0.106 -0.207,-0.14 -0.079,-0.035 -0.163,-0.052 -0.251,-0.052 -0.089,0 -0.172,0.017 -0.251,0.052 -0.079,0.034 -0.148,0.081 -0.207,0.14 -0.059,0.059 -0.106,0.127 -0.14,0.203 -0.035,0.077 -0.052,0.159 -0.052,0.248 0,0.088 0.017,0.173 0.052,0.254 0.034,0.082 0.081,0.152 0.14,0.211 0.059,0.059 0.128,0.106 0.207,0.14 0.079,0.035 0.162,0.052 0.251,0.052 0.088,0 0.172,-0.017 0.251,-0.052 0.079,-0.034 0.148,-0.081 0.207,-0.14 0.059,-0.059 0.107,-0.129 0.144,-0.211 0.037,-0.081 0.055,-0.166 0.055,-0.254" /><g
           transform="translate(220.3491,6.5513)"
           id="g138"><path
             id="path140"
             style="fill:#000000;fill-opacity:1;fill-rule:nonzero;stroke:none"
             d="m 0,0 c -0.035,-0.069 -0.089,-0.103 -0.163,-0.103 -0.054,0 -0.124,0.03 -0.21,0.092 -0.086,0.062 -0.2,0.131 -0.34,0.207 -0.14,0.076 -0.313,0.145 -0.517,0.207 -0.205,0.061 -0.454,0.092 -0.749,0.092 -0.267,0 -0.509,-0.038 -0.728,-0.114 C -2.926,0.305 -3.113,0.203 -3.269,0.075 -3.424,-0.052 -3.544,-0.201 -3.63,-0.371 -3.717,-0.54 -3.76,-0.718 -3.76,-0.905 c 0,-0.23 0.059,-0.422 0.177,-0.574 0.119,-0.152 0.274,-0.282 0.466,-0.391 0.192,-0.108 0.41,-0.201 0.654,-0.279 0.243,-0.079 0.493,-0.158 0.749,-0.237 0.256,-0.078 0.506,-0.166 0.75,-0.262 0.244,-0.096 0.462,-0.215 0.653,-0.358 0.193,-0.143 0.348,-0.318 0.466,-0.524 0.118,-0.207 0.177,-0.458 0.177,-0.754 0,-0.32 -0.058,-0.618 -0.173,-0.894 -0.116,-0.275 -0.284,-0.514 -0.503,-0.716 -0.219,-0.202 -0.489,-0.362 -0.808,-0.48 -0.321,-0.118 -0.685,-0.177 -1.094,-0.177 -0.517,0 -0.962,0.082 -1.337,0.247 -0.374,0.165 -0.709,0.381 -1.004,0.646 l 0.17,0.251 c 0.024,0.04 0.052,0.07 0.081,0.089 0.029,0.02 0.071,0.03 0.126,0.03 0.064,0 0.143,-0.04 0.236,-0.119 0.093,-0.078 0.215,-0.163 0.366,-0.255 0.15,-0.09 0.337,-0.175 0.561,-0.254 0.224,-0.079 0.501,-0.118 0.831,-0.118 0.31,0 0.584,0.043 0.82,0.129 0.236,0.086 0.433,0.203 0.591,0.351 0.157,0.147 0.277,0.321 0.358,0.52 0.081,0.2 0.122,0.41 0.122,0.632 0,0.246 -0.059,0.451 -0.177,0.613 -0.119,0.163 -0.273,0.3 -0.466,0.414 -0.192,0.113 -0.409,0.209 -0.653,0.288 -0.244,0.079 -0.495,0.157 -0.754,0.236 -0.258,0.079 -0.509,0.165 -0.753,0.259 -0.244,0.093 -0.462,0.211 -0.654,0.354 -0.192,0.143 -0.347,0.317 -0.465,0.521 -0.118,0.204 -0.177,0.459 -0.177,0.764 0,0.262 0.056,0.513 0.169,0.754 0.114,0.241 0.275,0.453 0.484,0.635 0.209,0.182 0.464,0.327 0.765,0.436 0.3,0.108 0.637,0.162 1.011,0.162 0.449,0 0.847,-0.065 1.193,-0.194 0.347,-0.13 0.666,-0.329 0.957,-0.596 z" /></g><g
           transform="translate(227.6646,7.0615)"
           id="g142"><path
             id="path144"
             style="fill:#000000;fill-opacity:1;fill-rule:nonzero;stroke:none"
             d="m 0,0 c -0.378,0 -0.718,-0.06 -1.018,-0.178 -0.299,-0.118 -0.559,-0.288 -0.777,-0.509 -0.22,-0.222 -0.396,-0.488 -0.532,-0.798 -0.135,-0.31 -0.225,-0.658 -0.269,-1.041 h 4.838 c 0,0.394 -0.054,0.747 -0.162,1.059 C 1.972,-1.154 1.819,-0.889 1.623,-0.672 1.426,-0.456 1.19,-0.29 0.915,-0.174 0.639,-0.058 0.334,0 0,0 M -0.011,0.524 C 0.403,0.524 0.786,0.453 1.138,0.31 1.49,0.167 1.795,-0.041 2.054,-0.314 2.313,-0.588 2.514,-0.923 2.66,-1.323 2.805,-1.721 2.877,-2.18 2.877,-2.696 2.877,-2.805 2.861,-2.878 2.829,-2.918 2.797,-2.958 2.747,-2.977 2.678,-2.977 h -5.303 v -0.14 c 0,-0.552 0.063,-1.037 0.191,-1.455 0.129,-0.419 0.311,-0.77 0.547,-1.053 0.237,-0.283 0.522,-0.496 0.857,-0.639 0.335,-0.143 0.709,-0.214 1.123,-0.214 0.369,0 0.689,0.041 0.96,0.122 0.271,0.081 0.499,0.172 0.683,0.273 0.185,0.101 0.331,0.192 0.44,0.273 0.108,0.082 0.187,0.122 0.236,0.122 0.064,0 0.113,-0.024 0.148,-0.073 L 2.752,-5.998 C 2.634,-6.146 2.477,-6.284 2.283,-6.412 2.088,-6.54 1.872,-6.649 1.633,-6.74 1.394,-6.832 1.138,-6.904 0.865,-6.958 0.591,-7.012 0.317,-7.04 0.041,-7.04 c -0.502,0 -0.96,0.088 -1.374,0.263 -0.413,0.174 -0.769,0.429 -1.064,0.764 -0.297,0.335 -0.526,0.745 -0.687,1.23 -0.162,0.485 -0.243,1.04 -0.243,1.666 0,0.527 0.075,1.013 0.225,1.458 0.15,0.446 0.367,0.83 0.65,1.153 0.284,0.322 0.631,0.574 1.042,0.757 0.41,0.182 0.877,0.273 1.399,0.273" /></g><g
           transform="translate(238.3711,9.5723)"
           id="g146"><path
             id="path148"
             style="fill:#000000;fill-opacity:1;fill-rule:nonzero;stroke:none"
             d="M 0,0 C 0.212,0 0.372,0.068 0.48,0.204 0.588,0.338 0.645,0.522 0.65,0.753 H 1.086 C 1.086,0.576 1.062,0.41 1.016,0.255 0.969,0.1 0.9,-0.034 0.809,-0.147 0.718,-0.261 0.605,-0.35 0.473,-0.413 0.34,-0.478 0.189,-0.509 0.022,-0.509 c -0.162,0 -0.316,0.04 -0.461,0.121 -0.146,0.082 -0.285,0.17 -0.418,0.266 -0.133,0.097 -0.262,0.185 -0.388,0.266 -0.125,0.082 -0.252,0.122 -0.38,0.122 -0.207,0 -0.364,-0.07 -0.473,-0.21 -0.108,-0.141 -0.167,-0.322 -0.177,-0.543 h -0.451 c 0,0.177 0.025,0.343 0.074,0.498 0.049,0.156 0.121,0.289 0.214,0.403 0.094,0.113 0.207,0.202 0.34,0.266 0.133,0.064 0.284,0.096 0.451,0.096 0.167,0 0.324,-0.041 0.469,-0.122 0.145,-0.082 0.283,-0.17 0.414,-0.266 C -0.634,0.292 -0.506,0.204 -0.38,0.122 -0.255,0.041 -0.128,0 0,0 m -3.708,-9.454 v 7.349 h 0.384 c 0.128,0 0.202,-0.062 0.222,-0.185 l 0.066,-1.107 c 0.335,0.423 0.725,0.764 1.171,1.022 0.446,0.259 0.942,0.388 1.489,0.388 0.403,0 0.759,-0.064 1.066,-0.192 0.308,-0.128 0.563,-0.313 0.765,-0.553 0.202,-0.242 0.355,-0.533 0.458,-0.872 0.104,-0.34 0.155,-0.724 0.155,-1.153 V -9.454 H 1.367 v 4.697 c 0,0.69 -0.158,1.23 -0.473,1.622 -0.315,0.391 -0.798,0.587 -1.448,0.587 -0.483,0 -0.931,-0.124 -1.344,-0.373 -0.414,-0.249 -0.783,-0.59 -1.108,-1.023 v -5.51 z" /></g><g
           transform="translate(246.6211,0.5098)"
           id="g150"><path
             id="path152"
             style="fill:#000000;fill-opacity:1;fill-rule:nonzero;stroke:none"
             d="m 0,0 c 0.286,0 0.548,0.031 0.787,0.092 0.238,0.062 0.46,0.148 0.665,0.259 0.204,0.11 0.395,0.242 0.572,0.395 0.177,0.152 0.352,0.317 0.524,0.495 V 3.154 C 1.849,3.134 1.247,3.081 0.743,2.995 0.238,2.909 -0.178,2.792 -0.506,2.644 -0.833,2.497 -1.075,2.32 -1.229,2.116 -1.385,1.912 -1.462,1.679 -1.462,1.418 c 0,-0.246 0.04,-0.46 0.122,-0.639 C -1.259,0.6 -1.152,0.452 -1.019,0.336 -0.886,0.22 -0.731,0.135 -0.554,0.081 -0.376,0.027 -0.192,0 0,0 m 2.955,-0.392 c -0.148,0 -0.239,0.069 -0.274,0.207 L 2.578,0.753 C 2.376,0.556 2.175,0.379 1.976,0.222 1.776,0.064 1.568,-0.069 1.352,-0.178 1.135,-0.286 0.901,-0.369 0.65,-0.425 0.399,-0.481 0.123,-0.51 -0.177,-0.51 c -0.251,0 -0.495,0.037 -0.731,0.111 -0.237,0.074 -0.446,0.187 -0.628,0.34 -0.182,0.152 -0.329,0.348 -0.44,0.587 -0.11,0.239 -0.166,0.526 -0.166,0.86 0,0.311 0.089,0.599 0.266,0.865 0.177,0.266 0.454,0.497 0.831,0.694 0.377,0.197 0.861,0.354 1.455,0.473 0.593,0.118 1.306,0.187 2.138,0.206 V 4.395 C 2.548,5.074 2.402,5.597 2.109,5.964 1.816,6.331 1.381,6.515 0.805,6.515 0.451,6.515 0.149,6.465 -0.1,6.367 -0.348,6.268 -0.559,6.16 -0.731,6.042 -0.903,5.924 -1.044,5.815 -1.152,5.717 -1.261,5.618 -1.352,5.569 -1.425,5.569 c -0.099,0 -0.173,0.044 -0.222,0.133 l -0.125,0.214 c 0.383,0.384 0.787,0.675 1.211,0.872 0.423,0.196 0.903,0.295 1.44,0.295 0.394,0 0.739,-0.062 1.034,-0.188 C 2.208,6.77 2.454,6.59 2.648,6.355 2.843,6.122 2.989,5.838 3.087,5.506 3.186,5.174 3.235,4.803 3.235,4.395 v -4.787 z" /></g></g></g></g></svg>