<?xml version="1.0" encoding="UTF-8" standalone="no"?>
<svg
   xmlns:dc="http://purl.org/dc/elements/1.1/"
   xmlns:cc="http://creativecommons.org/ns#"
   xmlns:rdf="http://www.w3.org/1999/02/22-rdf-syntax-ns#"
   xmlns:svg="http://www.w3.org/2000/svg"
   xmlns="http://www.w3.org/2000/svg"
   viewBox="0 0 682.672 677.716"
   height="677.716"
   width="682.672"
   xml:space="preserve"
   id="svg2"
   version="1.1"><metadata
     id="metadata8"><rdf:RDF><cc:Work
         rdf:about=""><dc:format>image/svg+xml</dc:format><dc:type
           rdf:resource="http://purl.org/dc/dcmitype/StillImage" /></cc:Work></rdf:RDF></metadata><defs
     id="defs6"><clipPath
       id="clipPath18"
       clipPathUnits="userSpaceOnUse"><path
         id="path16"
         d="M 0,508.287 H 512.004 V 0 H 0 Z" /></clipPath></defs><g
     transform="matrix(1.3333333,0,0,-1.3333333,0,677.716)"
     id="g10"><g
       id="g12"><g
         clip-path="url(#clipPath18)"
         id="g14"><g
           transform="translate(402.0332,466.3679)"
           id="g20"><path
             id="path22"
             style="fill:#000000;fill-opacity:1;fill-rule:nonzero;stroke:none"
             d="m 0,0 c -7.419,0 -13.457,6.036 -13.457,13.457 0,7.421 6.037,13.457 13.457,13.457 7.42,0 13.457,-6.036 13.457,-13.457 C 13.458,6.036 7.421,0 0,0 m -82.956,-52.707 c -4.667,3.348 -10.379,5.327 -16.548,5.327 -8.36,0 -15.888,-3.623 -21.1,-9.381 l -50.702,30.114 c 0.203,0.865 0.368,1.746 0.49,2.639 h 119.224 z m -16.547,-36.591 c -7.419,0 -13.457,6.036 -13.457,13.457 0,7.42 6.037,13.457 13.457,13.457 7.42,0 13.457,-6.036 13.457,-13.457 -10e-4,-7.421 -6.038,-13.457 -13.457,-13.457 m -99.505,55.705 c -7.42,0 -13.457,6.036 -13.457,13.457 0,7.42 6.037,13.457 13.457,13.457 7.42,0 13.457,-6.036 13.457,-13.457 0,-7.421 -6.037,-13.457 -13.457,-13.457 m -104.607,-93.174 c -7.42,0 -13.457,6.036 -13.457,13.456 0,7.421 6.037,13.457 13.457,13.457 7.42,0 13.457,-6.036 13.457,-13.457 -10e-4,-7.42 -6.037,-13.456 -13.457,-13.456 M 87.461,-9.003 H 17.452 c 6.693,5.213 11.011,13.339 11.011,22.46 0,15.693 -12.769,28.462 -28.462,28.462 -15.694,0 -28.462,-12.768 -28.462,-28.462 0,-4.795 1.195,-9.312 3.299,-13.28 l -10.031,-9.179 h -137.623 c -4.342,10.176 -14.447,17.328 -26.192,17.328 -11.745,0 -21.849,-7.151 -26.192,-17.328 h -154.324 c -12.411,-10e-4 -22.508,-10.098 -22.508,-22.508 v -55.409 c 0,-4.143 3.359,-7.503 7.503,-7.503 4.143,0 7.503,3.359 7.503,7.503 v 55.409 c 0,4.137 3.365,7.503 7.503,7.503 h 152.328 c 0.395,-2.874 1.21,-5.615 2.398,-8.152 l -63.276,-57.324 c -4.471,2.927 -9.809,4.637 -15.541,4.637 -15.693,0 -28.462,-12.768 -28.462,-28.462 0,-15.694 12.768,-28.462 28.462,-28.462 15.694,0 28.462,12.768 28.462,28.462 0,4.525 -1.066,8.804 -2.953,12.606 l 63.023,57.095 c 4.578,-3.145 10.114,-4.991 16.075,-4.991 8.056,0 15.334,3.369 20.517,8.766 l 51.093,-30.346 c -0.372,-1.832 -0.567,-3.725 -0.567,-5.664 0,-15.693 12.768,-28.462 28.462,-28.462 15.693,0 28.462,12.768 28.462,28.462 0,4.083 -0.87,7.964 -2.426,11.478 l 44.103,40.357 H 87.461 c 4.137,0 7.503,-3.365 7.503,-7.503 v -185.389 c 0,-4.143 3.359,-7.503 7.503,-7.503 4.142,0 7.503,3.359 7.503,7.503 V -31.51 C 109.968,-19.1 99.871,-9.003 87.461,-9.003" /></g><g
           transform="translate(489.4942,93.6183)"
           id="g24"><path
             id="path26"
             style="fill:#000000;fill-opacity:1;fill-rule:nonzero;stroke:none"
             d="m 0,0 h -466.985 c -4.136,0 -7.503,3.364 -7.503,7.503 V 54.105 H 7.501 V 7.503 H 7.502 C 7.502,3.364 4.136,0 0,0 m -291.839,-52.283 4.279,37.279 h 108.133 l 4.279,-37.279 z m 159.915,-26.328 h -203.137 v 11.323 h 203.137 z m -270.765,178.704 h 41.434 V 69.399 h -41.434 z m 0,30.62 h 41.434 v -15.615 h -41.434 z m 0,31.044 h 41.434 v -16.038 h -41.434 z m 99.504,65.802 h 41.435 v -15.615 h -41.435 z m -10e-4,31.044 h 41.435 v -16.038 h -41.435 z m 99.505,-158.51 h 41.435 V 69.399 h -41.435 z m 0,30.62 h 41.435 v -15.615 h -41.435 z m 0,31.044 h 41.435 v -16.038 h -41.435 z m 99.505,77.866 h 41.435 V 69.398 h -41.435 z m 0,30.621 h 41.435 v -15.615 h -41.435 z m 0,31.044 h 41.435 V 285.25 h -41.435 z M 22.507,125.84 c 0,4.143 -3.36,7.503 -7.503,7.503 -4.144,0 -7.503,-3.359 -7.503,-7.503 V 69.398 h -55.239 v 177.727 30.621 31.044 c 0,4.144 -3.359,7.502 -7.503,7.502 h -56.44 c -4.143,0 -7.504,-3.357 -7.504,-7.502 V 277.746 247.125 69.398 h -28.059 v 38.198 30.62 31.044 c 0,4.144 -3.36,7.503 -7.503,7.503 h -56.44 c -4.143,0 -7.503,-3.358 -7.503,-7.503 v -31.044 -30.62 -38.198 h -28.059 v 135.042 30.621 31.043 c 0,4.144 -3.359,7.502 -7.503,7.502 h -56.44 c -4.143,0 -7.503,-3.357 -7.503,-7.502 V 235.061 204.44 162.457 c 0,-4.145 3.359,-7.503 7.503,-7.503 4.144,0 7.503,3.358 7.503,7.503 v 34.481 h 41.435 V 69.398 h -41.435 v 63.048 c 0,4.145 -3.359,7.503 -7.503,7.503 -4.144,0 -7.503,-3.357 -7.503,-7.503 V 69.398 h -28.059 v 38.198 30.62 31.044 c 0,4.144 -3.359,7.503 -7.503,7.503 h -56.435 c -4.143,0 -7.503,-3.358 -7.503,-7.503 v -31.044 -30.62 -38.198 h -56.793 v 186.423 c 0,4.144 -3.359,7.503 -7.503,7.503 -4.143,0 -7.503,-3.358 -7.503,-7.503 V 7.503 c 0,-12.41 10.096,-22.509 22.508,-22.509 h 164.323 l -4.279,-37.278 h -35.621 c -4.143,0 -7.503,-3.359 -7.503,-7.503 v -26.328 c 0,-4.145 3.359,-7.503 7.503,-7.503 h 218.143 c 4.143,0 7.503,3.357 7.503,7.503 v 26.328 c 0,4.143 -3.359,7.503 -7.503,7.503 h -35.621 l -4.279,37.278 H 0.002 c 12.411,0 22.508,10.098 22.508,22.509 0,0.049 -0.006,54.2 -0.007,54.249 0.001,0.048 0.007,0.095 0.007,0.144 v 63.944 z" /></g></g></g></g></svg>