<?xml version="1.0" encoding="UTF-8" standalone="no"?>
<svg
   xmlns:dc="http://purl.org/dc/elements/1.1/"
   xmlns:cc="http://creativecommons.org/ns#"
   xmlns:rdf="http://www.w3.org/1999/02/22-rdf-syntax-ns#"
   xmlns:svg="http://www.w3.org/2000/svg"
   xmlns="http://www.w3.org/2000/svg"
   viewBox="0 0 447.64267 216.74001"
   height="216.74001"
   width="447.64267"
   xml:space="preserve"
   id="svg2"
   version="1.1"><metadata
     id="metadata8"><rdf:RDF><cc:Work
         rdf:about=""><dc:format>image/svg+xml</dc:format><dc:type
           rdf:resource="http://purl.org/dc/dcmitype/StillImage" /></cc:Work></rdf:RDF></metadata><defs
     id="defs6"><clipPath
       id="clipPath18"
       clipPathUnits="userSpaceOnUse"><path
         id="path16"
         d="M 0,162.555 H 335.732 V 0 H 0 Z" /></clipPath></defs><g
     transform="matrix(1.3333333,0,0,-1.3333333,0,216.74)"
     id="g10"><g
       id="g12"><g
         clip-path="url(#clipPath18)"
         id="g14"><g
           transform="translate(332.1992,140.8545)"
           id="g20"><path
             id="path22"
             style="fill:#383332;fill-opacity:1;fill-rule:nonzero;stroke:none"
             d="m 0,0 c -0.819,-1.479 -1.945,-2.217 -3.378,-2.217 -1.024,0 -2.279,0.658 -3.763,1.98 -1.484,1.319 -3.506,2.796 -6.065,4.433 -2.56,1.636 -5.734,3.113 -9.521,4.434 -3.788,1.319 -8.499,1.98 -14.127,1.98 -5.222,0 -10.163,-0.898 -14.82,-2.693 -4.659,-1.795 -8.702,-4.196 -12.131,-7.204 -3.431,-3.009 -6.143,-6.493 -8.139,-10.452 -1.996,-3.959 -2.994,-8.155 -2.994,-12.589 0,-4.33 0.971,-7.972 2.917,-10.926 1.944,-2.957 4.53,-5.518 7.755,-7.68 3.225,-2.166 6.858,-4.04 10.903,-5.623 4.043,-1.584 8.216,-3.167 12.516,-4.75 4.3,-1.584 8.47,-3.352 12.515,-5.304 4.043,-1.955 7.678,-4.304 10.902,-7.048 3.226,-2.746 5.81,-6.097 7.756,-10.056 1.944,-3.959 2.918,-8.736 2.918,-14.331 0,-6.757 -1.306,-13.302 -3.916,-19.636 -2.61,-6.335 -6.322,-11.956 -11.134,-16.864 -4.812,-4.91 -10.621,-8.844 -17.429,-11.798 -6.809,-2.954 -14.411,-4.434 -22.804,-4.434 -9.932,0 -18.224,1.769 -24.878,5.304 -6.656,3.537 -12.388,8.156 -17.199,13.857 l 3.533,5.384 c 0.614,0.843 1.228,1.477 1.842,1.9 0.614,0.421 1.382,0.634 2.303,0.634 1.022,0 2.304,-0.847 3.839,-2.534 1.536,-1.69 3.66,-3.563 6.373,-5.621 2.712,-2.059 6.167,-3.935 10.366,-5.623 4.196,-1.689 9.468,-2.533 15.817,-2.533 6.04,0 11.542,1.03 16.509,3.088 4.964,2.059 9.213,4.882 12.745,8.473 3.532,3.587 6.27,7.731 8.216,12.429 1.943,4.697 2.918,9.686 2.918,14.965 0,4.645 -0.975,8.552 -2.918,11.719 -1.946,3.167 -4.506,5.884 -7.678,8.155 -3.174,2.269 -6.81,4.197 -10.903,5.781 -4.096,1.583 -8.269,3.139 -12.516,4.671 -4.249,1.529 -8.422,3.218 -12.516,5.067 -4.095,1.847 -7.731,4.09 -10.902,6.73 -3.175,2.638 -5.735,5.859 -7.679,9.66 -1.946,3.8 -2.917,8.445 -2.917,13.935 0,6.121 1.278,12.008 3.839,17.657 2.557,5.646 6.142,10.661 10.749,15.044 4.607,4.379 10.083,7.863 16.432,10.451 6.346,2.586 13.307,3.88 20.885,3.88 8.599,0 16.07,-1.373 22.42,-4.117 6.345,-2.747 11.977,-6.865 16.892,-12.352 z" /></g><g
           transform="translate(43.2324,162.3882)"
           id="g24"><path
             id="path26"
             style="fill:#383332;fill-opacity:1;fill-rule:nonzero;stroke:none"
             d="m 0,0 c 1.078,-0.112 2.045,-0.373 2.901,-0.781 0.854,-0.41 1.618,-0.987 2.287,-1.729 0.669,-0.745 1.339,-1.712 2.008,-2.901 l 57.012,-100.412 c 0.148,2.603 0.371,5.094 0.669,7.475 0.297,2.38 0.558,4.611 0.781,6.694 L 76.592,0.167 h 32.132 L 88.642,-162.388 H 69.675 c -2.828,0 -5.171,0.408 -7.029,1.227 -1.86,0.818 -3.458,2.416 -4.797,4.797 L 1.06,-56.063 c -0.15,-2.083 -0.317,-4.092 -0.502,-6.025 -0.186,-1.935 -0.354,-3.757 -0.502,-5.467 l -11.157,-94.833 H -43.232 L -23.15,0.167 H -3.96 C -2.398,0.167 -1.079,0.111 0,0" /></g><g
           transform="translate(177.5869)"
           id="g28"><path
             id="path30"
             style="fill:#383332;fill-opacity:1;fill-rule:nonzero;stroke:none"
             d="M 0,0 H -29.339 L -9.442,162.549 H 19.897 Z" /></g><g
           transform="translate(210.7578)"
           id="g32"><path
             id="path34"
             style="fill:#383332;fill-opacity:1;fill-rule:nonzero;stroke:none"
             d="M 0,0 H -18.186 L 1.712,162.555 h 18.027 z" /></g></g></g></g></svg>