<?xml version="1.0" encoding="UTF-8" standalone="no"?>
<svg
   xmlns:dc="http://purl.org/dc/elements/1.1/"
   xmlns:cc="http://creativecommons.org/ns#"
   xmlns:rdf="http://www.w3.org/1999/02/22-rdf-syntax-ns#"
   xmlns:svg="http://www.w3.org/2000/svg"
   xmlns="http://www.w3.org/2000/svg"
   viewBox="0 0 682.66534 645.98535"
   height="645.98535"
   width="682.66534"
   xml:space="preserve"
   id="svg2"
   version="1.1"><metadata
     id="metadata8"><rdf:RDF><cc:Work
         rdf:about=""><dc:format>image/svg+xml</dc:format><dc:type
           rdf:resource="http://purl.org/dc/dcmitype/StillImage" /></cc:Work></rdf:RDF></metadata><defs
     id="defs6"><clipPath
       id="clipPath18"
       clipPathUnits="userSpaceOnUse"><path
         id="path16"
         d="M 0,484.489 H 511.999 V 0 H 0 Z" /></clipPath></defs><g
     transform="matrix(1.3333333,0,0,-1.3333333,0,645.98533)"
     id="g10"><g
       id="g12"><g
         clip-path="url(#clipPath18)"
         id="g14"><g
           transform="translate(136.9647,176.2545)"
           id="g20"><path
             id="path22"
             style="fill:#000000;fill-opacity:1;fill-rule:nonzero;stroke:none"
             d="M 0,0 C 4.781,2.758 6.418,8.879 3.66,13.66 0.898,18.437 -5.219,20.078 -10,17.32 -14.781,14.559 -16.422,8.438 -13.66,3.66 -10.902,-1.121 -4.781,-2.762 0,0" /></g><g
           transform="translate(26.703,147.235)"
           id="g24"><path
             id="path26"
             style="fill:#000000;fill-opacity:1;fill-rule:nonzero;stroke:none"
             d="m 0,0 c -4.391,7.598 -6.711,16.223 -6.711,24.949 0,17.836 9.586,34.446 25.012,43.352 l 77.941,45 50,-86.602 -77.941,-45.004 C 44.422,-32.086 13.785,-23.875 0,0 M 223.852,268.668 339.449,68.445 164.988,34.227 111.941,126.105 Z m 16.734,21.434 c 2.684,4.39 6.941,4.843 8.668,4.796 1.707,-0.019 5.961,-0.55 8.527,-4.996 L 374.094,88.438 c 3.789,-6.559 -0.817,-14.805 -8.414,-14.993 -1.364,-0.031 -1.993,-0.277 -5.485,-0.929 L 237.16,285.621 c 2.582,3.32 2.914,3.641 3.426,4.481 M 345.504,217.969 359.324,194.031 347,175.367 323.18,216.629 Z m -196.582,-235.91 -10,17.32 17.32,10 10,-17.32 z m 22.683,-79.297 c 5.524,-9.555 2.254,-21.782 -7.328,-27.317 -9.613,-5.558 -21.855,-2.144 -27.316,7.321 l -50,86.613 34.641,20 c 57.867,-100.242 49.074,-85.012 50.003,-86.617 M 69.281,-40 l 50.36,-87.23 c 10.867,-18.844 35.312,-25.821 54.644,-14.645 19.129,11.055 25.703,35.496 14.637,54.641 l -30,51.968 25.98,15 c 4.782,2.766 6.422,8.879 3.66,13.661 l -13.003,22.523 c 1.55,0.301 11.746,2.301 191.539,37.57 22.226,1.207 35.543,25.516 24.316,44.95 L 358.18,156 l 21.238,32.168 c 2.086,3.164 2.211,7.23 0.316,10.512 l -20,34.64 c -1.894,3.282 -5.492,5.203 -9.261,4.981 L 312,235.992 275.105,299.898 c -5.343,9.258 -14.918,14.864 -25.605,14.997 -0.129,0.003 -0.254,0.003 -0.383,0.003 -10.328,0 -19.703,-5.14 -25.258,-13.832 L 93.227,134.652 8.301,85.621 C -25.102,66.344 -36.672,23.492 -17.32,-10 0.359,-40.625 37.633,-52.672 69.281,-40" /></g><g
           transform="translate(105.9842,169.9146)"
           id="g28"><path
             id="path30"
             style="fill:#000000;fill-opacity:1;fill-rule:nonzero;stroke:none"
             d="m 0,0 c -2.762,4.781 -8.879,6.422 -13.66,3.66 l -17.32,-10 c -4.774,-2.758 -10.903,-1.113 -13.661,3.66 -2.761,4.782 -8.879,6.422 -13.66,3.66 -4.781,-2.761 -6.422,-8.878 -3.66,-13.66 8.231,-14.257 26.59,-19.285 40.981,-10.98 l 17.32,10 C 1.121,-10.898 2.762,-4.785 0,0" /></g><g
           transform="translate(497.1366,440.7428)"
           id="g32"><path
             id="path34"
             style="fill:#000000;fill-opacity:1;fill-rule:nonzero;stroke:none"
             d="m 0,0 -55.723,-31.008 c -4.824,-2.687 -6.562,-8.777 -3.875,-13.601 2.68,-4.821 8.766,-6.567 13.602,-3.875 l 55.719,31.007 c 4.828,2.688 6.562,8.778 3.875,13.602 C 10.914,0.953 4.824,2.688 0,0" /></g><g
           transform="translate(491.2928,337.1725)"
           id="g36"><path
             id="path38"
             style="fill:#000000;fill-opacity:1;fill-rule:nonzero;stroke:none"
             d="m 0,0 -38.637,10.352 c -5.336,1.429 -10.82,-1.735 -12.25,-7.071 -1.429,-5.336 1.739,-10.816 7.074,-12.246 l 38.641,-10.351 c 5.367,-1.442 10.824,1.773 12.246,7.07 C 8.504,-6.91 5.336,-1.426 0,0" /></g><g
           transform="translate(394.1991,477.0753)"
           id="g40"><path
             id="path42"
             style="fill:#000000;fill-opacity:1;fill-rule:nonzero;stroke:none"
             d="m 0,0 -10.363,-38.641 c -1.43,-5.336 1.734,-10.817 7.07,-12.25 5.332,-1.426 10.816,1.73 12.25,7.07 L 19.316,-5.18 C 20.746,0.156 17.582,5.64 12.246,7.07 6.914,8.5 1.43,5.335 0,0" /></g></g></g></g></svg>