<?xml version="1.0" encoding="UTF-8" standalone="no"?>
<svg
   xmlns:dc="http://purl.org/dc/elements/1.1/"
   xmlns:cc="http://creativecommons.org/ns#"
   xmlns:rdf="http://www.w3.org/1999/02/22-rdf-syntax-ns#"
   xmlns:svg="http://www.w3.org/2000/svg"
   xmlns="http://www.w3.org/2000/svg"
   viewBox="0 0 661.33331 661.33331"
   height="661.33331"
   width="661.33331"
   xml:space="preserve"
   id="svg2"
   version="1.1"><metadata
     id="metadata8"><rdf:RDF><cc:Work
         rdf:about=""><dc:format>image/svg+xml</dc:format><dc:type
           rdf:resource="http://purl.org/dc/dcmitype/StillImage" /></cc:Work></rdf:RDF></metadata><defs
     id="defs6"><clipPath
       id="clipPath18"
       clipPathUnits="userSpaceOnUse"><path
         id="path16"
         d="M 0,496 H 496 V 0 H 0 Z" /></clipPath></defs><g
     transform="matrix(1.3333333,0,0,-1.3333333,0,661.33333)"
     id="g10"><g
       id="g12"><g
         clip-path="url(#clipPath18)"
         id="g14"><path
           id="path20"
           style="fill:#000000;fill-opacity:1;fill-rule:nonzero;stroke:none"
           d="M 432,272 H 64 v 32 H 432 Z M 416,48 H 384 V 32 h 48 V 16 H 64 v 16 h 48 V 48 H 80 V 256 H 416 Z M 96,352 h 32 V 320 H 96 Z m 96,-16 h 32 v -16 h -32 z m 80,0 h 32 v -16 h -32 z m 96,16 h 32 v -32 h -32 z m 64,-32 h -16 v 32 c 0,8.824 -7.176,16 -16,16 h -32 c -8.824,0 -16,-7.176 -16,-16 v -32 h -32 v 16 c 0,8.824 -7.176,16 -16,16 h -32 c -8.824,0 -16,-7.176 -16,-16 v -16 h -16 v 16 c 0,8.824 -7.176,16 -16,16 h -32 c -8.824,0 -16,-7.176 -16,-16 v -16 h -32 v 32 c 0,8.824 -7.176,16 -16,16 H 96 c -8.824,0 -16,-7.176 -16,-16 V 320 H 64 c -8.824,0 -16,-7.176 -16,-16 v -32 c 0,-8.824 7.176,-16 16,-16 V 48 C 55.176,48 48,40.824 48,32 V 0 h 400 v 32 c 0,8.824 -7.176,16 -16,16 v 208 c 8.824,0 16,7.176 16,16 v 32 c 0,8.824 -7.176,16 -16,16" /><g
           transform="translate(232.5664,106.9763)"
           id="g22"><path
             id="path24"
             style="fill:#000000;fill-opacity:1;fill-rule:nonzero;stroke:none"
             d="M 0,0 14.867,-5.953 35.25,45.023 H 12.379 L 22.594,65.449 8.273,72.598 -13.512,29.023 h 25.129 z" /></g><g
           transform="translate(168.7031,94.8005)"
           id="g26"><path
             id="path28"
             style="fill:#000000;fill-opacity:1;fill-rule:nonzero;stroke:none"
             d="m 0,0 73.84,118.168 c 1.168,1.871 3.265,3.031 5.457,3.031 2.191,0 4.289,-1.16 5.465,-3.039 L 158.641,-0.082 c 0.449,-0.695 0.656,-1.43 0.656,-2.32 0,-2.383 -2.016,-4.399 -4.399,-4.399 H 3.695 c -2.383,0 -4.398,2.016 -4.398,4.399 0,0.89 0.207,1.625 0.703,2.402 m 3.695,-22.801 h 151.203 c 11.247,0 20.399,9.153 20.399,20.399 0,3.968 -1.07,7.656 -3.145,10.882 L 98.32,126.633 c -4.113,6.613 -11.222,10.566 -19.023,10.566 -7.801,0 -14.91,-3.953 -19.024,-10.558 L -13.52,8.559 c -2.113,-3.305 -3.183,-6.993 -3.183,-10.961 0,-11.246 9.152,-20.399 20.398,-20.399" /></g><path
           id="path30"
           style="fill:#000000;fill-opacity:1;fill-rule:nonzero;stroke:none"
           d="M 128,48 H 368 V 32 H 128 Z" /><g
           transform="translate(440,399.9998)"
           id="g32"><path
             id="path34"
             style="fill:#000000;fill-opacity:1;fill-rule:nonzero;stroke:none"
             d="M 0,0 C -22.055,0 -40,17.945 -40,40 -40,62.055 -22.055,80 0,80 22.055,80 40,62.055 40,40 40,17.945 22.055,0 0,0 M 0,96 C -28.152,96 -51.457,75.098 -55.359,48 H -80 V 32 h 24.641 C -51.457,4.902 -28.152,-16 0,-16 30.871,-16 56,9.121 56,40 56,70.879 30.871,96 0,96" /></g><g
           transform="translate(448,463.9998)"
           id="g36"><path
             id="path38"
             style="fill:#000000;fill-opacity:1;fill-rule:nonzero;stroke:none"
             d="m 0,0 h -16 v -16 h -16 v -16 h 16 V -48 H 0 v 16 h 16 v 16 H 0 Z" /></g><g
           transform="translate(16,439.9998)"
           id="g40"><path
             id="path42"
             style="fill:#000000;fill-opacity:1;fill-rule:nonzero;stroke:none"
             d="M 0,0 C 0,22.055 17.945,40 40,40 62.055,40 80,22.055 80,0 80,-22.055 62.055,-40 40,-40 17.945,-40 0,-22.055 0,0 m 95.359,-8 h 67.696 L 185.047,-51.992 207.879,8.902 239.383,-77.734 269.273,-8 H 296 V 8 H 258.727 L 240.609,-34.273 208.113,55.09 182.945,-12.016 172.945,8 H 95.359 C 91.457,35.098 68.152,56 40,56 9.129,56 -16,30.879 -16,0 c 0,-30.879 25.129,-56 56,-56 28.152,0 51.457,20.902 55.359,48" /></g><path
           id="path44"
           style="fill:#000000;fill-opacity:1;fill-rule:nonzero;stroke:none"
           d="M 32,448 H 80 V 432 H 32 Z" /><path
           id="path46"
           style="fill:#000000;fill-opacity:1;fill-rule:nonzero;stroke:none"
           d="m 328,448 h 16 v -16 h -16 z" /></g></g></g></svg>