<?xml version="1.0" encoding="UTF-8" standalone="no"?>
<svg
   xmlns:dc="http://purl.org/dc/elements/1.1/"
   xmlns:cc="http://creativecommons.org/ns#"
   xmlns:rdf="http://www.w3.org/1999/02/22-rdf-syntax-ns#"
   xmlns:svg="http://www.w3.org/2000/svg"
   xmlns="http://www.w3.org/2000/svg"
   viewBox="0 0 681.33466 566.46533"
   height="566.46533"
   width="681.33466"
   xml:space="preserve"
   id="svg2"
   version="1.1"><metadata
     id="metadata8"><rdf:RDF><cc:Work
         rdf:about=""><dc:format>image/svg+xml</dc:format><dc:type
           rdf:resource="http://purl.org/dc/dcmitype/StillImage" /></cc:Work></rdf:RDF></metadata><defs
     id="defs6"><clipPath
       id="clipPath18"
       clipPathUnits="userSpaceOnUse"><path
         id="path16"
         d="M 0,424.849 H 511.001 V 0 H 0 Z" /></clipPath></defs><g
     transform="matrix(1.3333333,0,0,-1.3333333,0,566.46533)"
     id="g10"><g
       id="g12"><g
         clip-path="url(#clipPath18)"
         id="g14"><g
           transform="translate(433.9717,268.3152)"
           id="g20"><path
             id="path22"
             style="fill:#000000;fill-opacity:1;fill-rule:nonzero;stroke:none"
             d="m 0,0 h -293.68 c -4.148,0 -7.512,-3.36 -7.512,-7.513 0,-4.148 3.364,-7.508 7.512,-7.508 H 0 c 34.191,0 62.004,-27.817 62.004,-62.008 0,-34.187 -27.816,-62.004 -62.004,-62.004 h -38.705 c -4.149,0 -7.509,-3.361 -7.509,-7.509 0,-4.151 3.36,-7.513 7.509,-7.513 H 0 c 42.476,0 77.029,34.554 77.029,77.026 C 77.029,-34.554 42.476,0 0,0" /></g><g
           transform="translate(129.021,176.5067)"
           id="g24"><path
             id="path26"
             style="fill:#000000;fill-opacity:1;fill-rule:nonzero;stroke:none"
             d="m 0,0 c 8.148,0 14.78,6.632 14.78,14.779 0,8.153 -6.632,14.784 -14.78,14.784 -8.152,0 -14.783,-6.631 -14.783,-14.784 C -14.783,6.632 -8.152,0 0,0" /></g><g
           transform="translate(196.6431,191.2859)"
           id="g28"><path
             id="path30"
             style="fill:#000000;fill-opacity:1;fill-rule:nonzero;stroke:none"
             d="M 0,0 C 0,6.873 5.59,12.464 12.46,12.464 19.333,12.464 24.924,6.873 24.924,0 24.924,-6.869 19.333,-12.46 12.46,-12.46 5.59,-12.46 0,-6.869 0,0 m 39.949,0 c 0,15.158 -12.331,27.489 -27.485,27.489 -15.158,0 -27.489,-12.331 -27.489,-27.489 0,-15.153 12.331,-27.485 27.489,-27.485 15.154,0 27.485,12.332 27.485,27.485" /></g><g
           transform="translate(276.7285,191.2859)"
           id="g32"><path
             id="path34"
             style="fill:#000000;fill-opacity:1;fill-rule:nonzero;stroke:none"
             d="M 0,0 C 0,6.873 5.591,12.464 12.46,12.464 19.333,12.464 24.924,6.873 24.924,0 24.924,-6.869 19.333,-12.46 12.46,-12.46 5.591,-12.46 0,-6.869 0,0 m 39.949,0 c 0,15.158 -12.331,27.489 -27.485,27.489 -15.158,0 -27.489,-12.331 -27.489,-27.489 0,-15.153 12.331,-27.485 27.489,-27.485 15.154,0 27.485,12.332 27.485,27.485" /></g><g
           transform="translate(356.8145,191.2859)"
           id="g36"><path
             id="path38"
             style="fill:#000000;fill-opacity:1;fill-rule:nonzero;stroke:none"
             d="M 0,0 C 0,6.873 5.591,12.464 12.46,12.464 19.333,12.464 24.924,6.873 24.924,0 24.924,-6.869 19.333,-12.46 12.46,-12.46 5.591,-12.46 0,-6.869 0,0 m 39.949,0 c 0,15.158 -12.332,27.489 -27.485,27.489 -15.158,0 -27.489,-12.331 -27.489,-27.489 0,-15.153 12.331,-27.485 27.489,-27.485 15.153,0 27.485,12.332 27.485,27.485" /></g><path
           id="path40"
           style="fill:#000000;fill-opacity:1;fill-rule:nonzero;stroke:none"
           d="m 207.017,114.261 h 96.966 v -48.3 h -96.966 z m 182.389,-48.3 h -70.401 v 48.3 h 46.219 c 4.148,0 7.512,3.361 7.512,7.512 0,4.149 -3.364,7.509 -7.512,7.509 H 77.029 c -34.191,0 -62.008,27.817 -62.008,62.004 0,34.191 27.817,62.008 62.008,62.008 h 33.217 c 4.148,0 7.508,3.361 7.508,7.509 0,4.152 -3.36,7.512 -7.508,7.512 H 77.029 C 34.554,268.315 0,233.762 0,191.286 0,148.814 34.554,114.261 77.029,114.261 h 114.967 v -48.3 H 121.594 C 103.407,65.961 88.616,51.17 88.616,32.982 88.616,14.796 103.407,0 121.594,0 h 62.889 c 4.148,0 7.513,3.36 7.513,7.513 0,4.148 -3.365,7.508 -7.513,7.508 h -62.889 c -9.902,0 -17.957,8.059 -17.957,17.961 0,9.903 8.055,17.957 17.957,17.957 h 267.812 c 9.904,0 17.957,-8.054 17.957,-17.957 0,-9.902 -8.053,-17.961 -17.957,-17.961 H 214.53 c -4.148,0 -7.513,-3.36 -7.513,-7.508 C 207.017,3.36 210.382,0 214.53,0 h 174.876 c 18.184,0 32.979,14.796 32.979,32.982 0,18.188 -14.795,32.979 -32.979,32.979" /><g
           transform="translate(180.9395,387.1063)"
           id="g42"><path
             id="path44"
             style="fill:#000000;fill-opacity:1;fill-rule:nonzero;stroke:none"
             d="m 0,0 c 22.456,14.866 48.237,22.721 74.561,22.721 26.32,0 52.101,-7.855 74.561,-22.721 1.275,-0.842 2.714,-1.248 4.137,-1.248 2.436,0 4.826,1.186 6.272,3.369 2.289,3.458 1.342,8.117 -2.116,10.409 C 132.491,29.025 103.84,37.743 74.561,37.743 45.282,37.743 16.631,29.025 -8.292,12.53 -11.75,10.242 -12.702,5.579 -10.41,2.121 -8.121,-1.341 -3.462,-2.288 0,0" /></g><g
           transform="translate(306.2646,348.0189)"
           id="g46"><path
             id="path48"
             style="fill:#000000;fill-opacity:1;fill-rule:nonzero;stroke:none"
             d="m 0,0 c 2.468,0 4.885,1.212 6.323,3.442 2.246,3.486 1.24,8.137 -2.245,10.383 -16.554,10.666 -35.516,16.307 -54.842,16.307 -19.326,0 -38.289,-5.641 -54.842,-16.307 -3.489,-2.246 -4.495,-6.897 -2.246,-10.383 2.246,-3.489 6.897,-4.491 10.382,-2.245 14.121,9.099 30.273,13.91 46.706,13.91 16.433,0 32.58,-4.811 46.705,-13.91 C -2.8,0.386 -1.392,0 0,0" /></g><g
           transform="translate(255.5005,331.138)"
           id="g50"><path
             id="path52"
             style="fill:#000000;fill-opacity:1;fill-rule:nonzero;stroke:none"
             d="m 0,0 c -9.162,0 -18.16,-3.135 -26.016,-9.061 -3.314,-2.499 -3.972,-7.208 -1.477,-10.518 2.499,-3.314 7.212,-3.973 10.522,-1.478 5.306,4.004 11.014,6.032 16.971,6.032 5.954,0 11.665,-2.028 16.971,-6.032 1.353,-1.021 2.944,-1.512 4.518,-1.512 2.277,0 4.526,1.029 6,2.986 2.499,3.314 1.841,8.023 -1.474,10.522 C 18.156,-3.135 9.162,0 0,0" /></g></g></g></g></svg>